PathFileType	4	(x/y/z)	S10_PSF_T03
DataRate	CameraRate	NumFrames	NumMarkers	Units	OrigDataRate	OrigDataStartFrame	OrigNumFrames
240	240	8	51	mm	240	331	440
Frame#	Time	Sternum			R.Acromium			L.Acromium			Top.Head			R.ASIS			L.ASIS			R.PSIS			L.PSIS			R.Great.Tro			L.Great.Tro			R.Iliac.Crest			L.Iliac.Crest			V.Sacral			R.Thigh.Upper.Post			R.Thigh.Lower.Ant			R.Thigh.Lower.Post			R.Thigh.Upper.Ant			R.Knee.Lat			R.Knee.Med			R.Shank.Upper.Post			R.Shank.Lower.Ant			R.Shank.Lower.Post			R.Shank.Upper.Ant			R.Ankle.Lat			R.Ankle.Med			R.Heel.Upper			R.Heel.Med			R.Heel.Lat			R.Toe.Lat			R.Toe.Med			R.Toe.Tip			L.Thigh.Upper.Post			L.Thigh.Lower.Ant			L.Thigh.Lower.Post			L.Thigh.Upper.Ant			L.Knee.Lat			L.Knee.Med			L.Shank.Upper.Post			L.Shank.Lower.Ant			L.Shank.Lower.Post			L.Shank.Upper.Ant			L.Ankle.Lat			L.Ankle.Med			L.Heel.Upper			L.Heel.Med			L.Heel.Lat			L.Toe.Lat			L.Toe.Med			L.Toe.Tip			Cervical.Spine			Back			
		X1	Y1	Z1	X2	Y2	Z2	X3	Y3	Z3	X4	Y4	Z4	X5	Y5	Z5	X6	Y6	Z6	X7	Y7	Z7	X8	Y8	Z8	X9	Y9	Z9	X10	Y10	Z10	X11	Y11	Z11	X12	Y12	Z12	X13	Y13	Z13	X14	Y14	Z14	X15	Y15	Z15	X16	Y16	Z16	X17	Y17	Z17	X18	Y18	Z18	X19	Y19	Z19	X20	Y20	Z20	X21	Y21	Z21	X22	Y22	Z22	X23	Y23	Z23	X24	Y24	Z24	X25	Y25	Z25	X26	Y26	Z26	X27	Y27	Z27	X28	Y28	Z28	X29	Y29	Z29	X30	Y30	Z30	X31	Y31	Z31	X32	Y32	Z32	X33	Y33	Z33	X34	Y34	Z34	X35	Y35	Z35	X36	Y36	Z36	X37	Y37	Z37	X38	Y38	Z38	X39	Y39	Z39	X40	Y40	Z40	X41	Y41	Z41	X42	Y42	Z42	X43	Y43	Z43	X44	Y44	Z44	X45	Y45	Z45	X46	Y46	Z46	X47	Y47	Z47	X48	Y48	Z48	X49	Y49	Z49	X50	Y50	Z50	X51	Y51	Z51	

331	1.375	366.41	1265.7	308.68	253.44	1427.6	460.13	235.8	1440.7	154.33	187.27	1735.2	314.69	307.35	989.58	420.48	309.11	1024.1	192.53	105.81	1014.3	329.73	111.3	1029.3	249.31	232.21	903.85	482.36	252.62	967.4	130.07	212.12	1067.1	464.74	243.01	1098.1	168.1	88.487	986.25	288.05	278.69	700.66	492.58	349.84	631.7	466.06	287.28	611.35	487.91	342.75	723.39	466.73	294.84	487.73	458.31	313.73	481.65	326.26	93.422	402.54	449.39	79.24	311.69	442.21	32.978	358.99	443.56	145.02	351.94	449.43	-42.635	280.61	427.49	-20.072	272.99	344.27	-89.005	314.9	371.39	-111.91	300.95	341.9	-115.82	308.28	404.22	-96.962	138.34	454.35	-71.996	111.15	351.73	-44.355	60.357	396.55	268.48	679.45	141.33	356.57	617.85	172.36	285.81	589.08	168.89	343.6	703.34	146.89	334.23	512.24	189.09	339.45	520.84	317.28	273	296.86	202.17	341.34	211.22	220.08	277.58	220.28	215.57	337.11	286.83	206.02	305.44	104.7	230.14	325	117.52	316.71	241.46	76.352	284.2	254.98	43.706	316.07	244.94	46.881	251.7	417.88	42.563	199.51	454.81	47.311	305.58	504.83	59.862	252.04	166.01	1488.2	320.17	80.859	1281.2	313.24
332	1.3792	371.24	1266.8	309.06	257.57	1428.6	460.07	241.43	1441.8	154.15	192.89	1736.6	314.35	312.13	990.93	420.2	314.07	1025.1	192.19	110.68	1015.5	329.18	116.22	1030.4	248.77	237.15	905.27	481.95	257.27	968.15	129.73	216.78	1068.3	464.31	248.11	1099.2	167.83	93.324	987.48	287.51	286.56	702.61	492.57	358.55	634.63	466	296.38	613.44	488.03	350.21	726.17	466.5	306	489.94	458.37	324.43	484.08	326.09	105.03	403.98	449.16	91.241	313.05	442.09	44.787	360.15	443.36	156.84	353.6	449.3	-30.601	281.48	427.34	-7.8269	273.66	344.2	-77.584	314.99	370.95	-100.24	300.59	341.49	-104.24	308.13	403.76	-83.225	138.85	454.68	-57.886	111.54	352.16	-29.686	61.324	397.21	270.75	680.14	141.18	358.46	617.84	171.91	287.41	589.61	168.67	346.14	703.4	146.45	335.25	512.3	188.7	340.73	520.79	316.84	273.43	297.02	201.93	341.55	211.23	219.91	277.8	220.45	215.4	337.53	286.83	205.77	305.44	104.72	230.1	325.09	117.61	316.58	241.42	76.384	284.13	254.98	43.764	316.02	244.93	46.894	251.66	417.88	42.536	199.45	454.8	47.337	305.54	504.82	59.833	252.01	170.85	1489.3	319.62	85.754	1282.3	312.17
333	1.3833	376.07	1267.9	309.44	261.69	1429.6	460	247.04	1443	153.98	198.51	1737.9	314.04	316.9	992.29	419.89	318.98	1026	191.82	115.55	1016.7	328.68	121.12	1031.6	248.27	242.12	906.71	481.58	261.86	968.87	129.4	221.46	1069.6	463.88	253.17	1100.2	167.55	98.153	988.7	287.02	294.44	704.62	492.54	367.23	637.62	465.88	305.47	615.59	488.14	357.63	728.98	466.21	317.06	492.22	458.41	335.11	486.58	325.91	116.57	405.31	448.88	103.27	314.3	441.95	56.584	361.16	443.13	168.64	355.21	449.13	-18.489	282.12	427.16	4.4878	274.13	344.11	-66.15	314.78	370.48	-88.532	299.91	341.05	-92.637	307.65	403.27	-69.23	139.1	455	-43.49	111.68	352.58	-14.655	62.117	397.87	272.97	680.84	141.06	360.29	617.82	171.46	288.98	590.15	168.49	348.63	703.47	146.02	336.25	512.36	188.32	342.04	520.74	316.41	273.86	297.19	201.66	341.77	211.26	219.75	278.03	220.62	215.21	337.95	286.84	205.53	305.45	104.75	230.06	325.17	117.7	316.45	241.39	76.42	284.05	254.99	43.825	315.97	244.92	46.911	251.63	417.89	42.51	199.4	454.79	47.36	305.51	504.81	59.8	251.97	175.67	1490.4	319.07	90.636	1283.4	311.11
334	1.3875	380.88	1269.1	309.79	265.81	1430.6	459.93	252.63	1444.1	153.83	204.12	1739.2	313.75	321.67	993.67	419.57	323.85	1026.9	191.43	120.41	1017.9	328.22	126.01	1032.7	247.81	247.13	908.19	481.24	266.4	969.57	129.07	226.15	1070.9	463.46	258.17	1101.3	167.25	102.97	989.9	286.58	302.32	706.66	492.49	375.9	640.66	465.72	314.56	617.81	488.23	365.03	731.82	465.87	328.03	494.56	458.43	345.8	489.14	325.72	128.05	406.53	448.55	115.34	315.43	441.79	68.368	362	442.88	180.43	356.77	448.93	-6.3025	282.52	426.93	16.869	274.37	343.99	-54.694	314.27	369.98	-76.779	298.9	340.59	-80.996	306.85	402.76	-54.997	139.09	455.32	-28.832	111.6	352.99	0.7062	62.734	398.52	275.14	681.53	140.97	362.09	617.8	171.02	290.51	590.69	168.34	351.08	703.52	145.6	337.22	512.43	187.93	343.38	520.7	315.98	274.3	297.37	201.38	342	211.29	219.6	278.27	220.81	215	338.38	286.87	205.3	305.45	104.78	230.02	325.24	117.79	316.33	241.36	76.46	283.96	255	43.89	315.91	244.91	46.932	251.59	417.9	42.483	199.35	454.79	47.38	305.47	504.8	59.764	251.94	180.48	1491.4	318.52	95.506	1284.5	310.06
335	1.3917	385.69	1270.2	310.12	269.91	1431.5	459.84	258.21	1445.2	153.67	209.73	1740.5	313.48	326.44	995.05	419.23	328.68	1027.8	191.02	125.26	1019.1	327.8	130.88	1033.8	247.38	252.19	909.68	480.92	270.9	970.24	128.75	230.84	1072.2	463.03	263.12	1102.2	166.94	107.78	991.08	286.19	310.2	708.74	492.43	384.53	643.74	465.5	323.64	620.08	488.3	372.4	734.69	465.48	338.89	496.95	458.41	356.46	491.76	325.53	139.48	407.64	448.19	127.42	316.44	441.61	80.136	362.67	442.59	192.2	358.26	448.71	5.956	282.68	426.66	29.315	274.41	343.85	-43.207	313.47	369.45	-64.974	297.58	340.12	-69.315	305.73	402.23	-40.543	138.83	455.62	-13.933	111.29	353.38	16.369	63.176	399.17	277.28	682.22	140.91	363.84	617.79	170.57	292.01	591.24	168.22	353.48	703.56	145.2	338.17	512.52	187.56	344.74	520.67	315.55	274.73	297.54	201.08	342.23	211.34	219.46	278.51	220.99	214.79	338.81	286.9	205.08	305.45	104.81	229.97	325.31	117.88	316.21	241.34	76.504	283.88	255.02	43.958	315.85	244.91	46.955	251.56	417.92	42.457	199.29	454.79	47.395	305.44	504.8	59.724	251.91	185.27	1492.5	317.98	100.37	1285.6	309.03
336	1.3958	390.49	1271.3	310.42	274.02	1432.5	459.73	263.76	1446.3	153.53	215.33	1741.8	313.23	331.22	996.43	418.87	333.48	1028.7	190.59	130.1	1020.3	327.41	135.73	1034.8	246.99	257.29	911.19	480.62	275.36	970.88	128.42	235.55	1073.6	462.61	268.02	1103.2	166.6	112.59	992.24	285.85	318.08	710.85	492.34	393.13	646.85	465.23	332.72	622.4	488.35	379.74	737.58	465.05	349.64	499.39	458.36	367.09	494.43	325.32	150.83	408.63	447.8	139.53	317.32	441.41	91.888	363.17	442.28	203.96	359.69	448.46	18.283	282.59	426.34	41.822	274.23	343.69	-31.682	312.38	368.89	-53.107	295.94	339.62	-57.586	304.3	401.69	-25.886	138.31	455.91	1.1887	110.76	353.75	32.307	63.444	399.79	279.39	682.91	140.87	365.57	617.77	170.12	293.49	591.8	168.13	355.83	703.59	144.81	339.09	512.61	187.18	346.14	520.65	315.13	275.16	297.72	200.79	342.45	211.39	219.32	278.74	221.18	214.57	339.22	286.94	204.87	305.46	104.85	229.93	325.37	117.98	316.09	241.31	76.553	283.8	255.03	44.028	315.79	244.9	46.982	251.53	417.93	42.43	199.25	454.79	47.407	305.41	504.8	59.68	251.88	190.05	1493.5	317.43	105.22	1286.6	308
337	1.4	395.28	1272.3	310.7	278.12	1433.4	459.61	269.29	1447.4	153.39	220.92	1743.1	313	336	997.81	418.48	338.23	1029.5	190.14	134.94	1021.4	327.07	140.56	1035.9	246.63	262.44	912.7	480.36	279.78	971.49	128.1	240.27	1074.9	462.18	272.88	1104.1	166.25	117.39	993.38	285.55	325.95	712.99	492.24	401.7	649.98	464.9	341.77	624.75	488.38	387.04	740.47	464.57	360.28	501.87	458.27	377.66	497.14	325.1	162.13	409.49	447.38	151.67	318.06	441.18	103.62	363.49	441.94	215.68	361.05	448.19	30.677	282.26	425.98	54.389	273.84	343.5	-20.111	310.99	368.32	-41.172	294	339.11	-45.804	302.55	401.12	-11.037	137.56	456.17	16.519	110.03	354.11	48.5	63.546	400.41	281.47	683.6	140.86	367.27	617.75	169.66	294.94	592.36	168.07	358.14	703.61	144.43	339.98	512.7	186.81	347.56	520.64	314.71	275.58	297.91	200.49	342.67	211.46	219.18	278.96	221.38	214.36	339.63	286.99	204.65	305.47	104.88	229.89	325.43	118.08	315.97	241.28	76.605	283.71	255.04	44.1	315.73	244.9	47.012	251.5	417.94	42.402	199.2	454.79	47.415	305.38	504.8	59.633	251.85	194.83	1494.5	316.89	110.06	1287.7	306.99
338	1.4042	400.05	1273.4	310.95	282.22	1434.3	459.48	274.79	1448.4	153.25	226.51	1744.3	312.8	340.78	999.17	418.07	342.96	1030.3	189.67	139.78	1022.5	326.76	145.38	1036.9	246.3	267.63	914.22	480.11	284.17	972.07	127.78	244.99	1076.2	461.76	277.7	1104.9	165.86	122.18	994.48	285.31	333.82	715.14	492.12	410.23	653.13	464.51	350.81	627.15	488.39	394.3	743.37	464.04	370.79	504.37	458.16	388.15	499.89	324.87	173.36	410.21	446.93	163.82	318.67	440.94	115.34	363.62	441.59	227.38	362.32	447.9	43.134	281.68	425.58	67.013	273.23	343.28	-8.4872	309.32	367.72	-29.161	291.76	338.59	-33.961	300.5	400.54	3.9919	136.59	456.42	32.046	109.09	354.45	64.929	63.491	401	283.53	684.29	140.87	368.94	617.74	169.2	296.37	592.93	168.03	360.41	703.62	144.08	340.84	512.8	186.44	349.01	520.63	314.3	275.97	298.1	200.21	342.87	211.53	219.04	279.18	221.59	214.15	340.02	287.06	204.44	305.47	104.92	229.84	325.48	118.18	315.87	241.26	76.662	283.64	255.05	44.173	315.67	244.89	47.045	251.47	417.96	42.373	199.16	454.8	47.419	305.36	504.81	59.583	251.83	199.59	1495.4	316.35	114.9	1288.7	305.99
